<svg aria-hidden="true" style="position: absolute; width: 0; height: 0; overflow: hidden;" version="1.1" xmlns="http://www.w3.org/2000/svg" xmlns:xlink="http://www.w3.org/1999/xlink">
<defs>
<symbol id="icon-computer" viewBox="0 0 32 32">
<path fill="#fc8b04" style="fill: var(--color1, #fc8b04)" d="M31.293 3.823h-23.301c-0.293 0-0.53 0.237-0.53 0.53v0 15.357c0 0.293 0.237 0.53 0.53 0.53v0h14.298v4.766h-2.118v1.059h8.473v1.059h-8.473v1.059h9.002c0.293 0 0.53-0.237 0.53-0.53v0-7.413h1.589c0.293 0 0.53-0.237 0.53-0.53v-15.357c0-0.293-0.237-0.53-0.53-0.53v0zM30.763 4.884v2.118h-22.242v-2.118zM23.349 20.24h1.059v1.059c0 0.293 0.237 0.53 0.53 0.53s0.53-0.237 0.53-0.53v-1.059h1.059v4.766h-3.178zM28.645 25.006h-1.059v-4.766h1.059zM8.521 19.181v-11.121h22.242v11.121z"></path>
<path fill="#fc8b04" style="fill: var(--color1, #fc8b04)" d="M2.696 28.183h13.769c1.462-0.002 2.646-1.186 2.648-2.648v-0c0-0.293-0.237-0.53-0.53-0.53v0h-2.118v-3.707h-1.059v3.707h-11.651v-9.002h2.648v-1.059h-3.177c-0.292 0-0.53 0.237-0.53 0.53v0 9.532h-2.118c-0.292 0-0.53 0.237-0.53 0.53v0c0.002 1.462 1.186 2.646 2.648 2.648h0zM7.772 26.065l0.374 0.374c0.096 0.096 0.228 0.155 0.374 0.155 0 0 0 0 0 0h2.118c0 0 0 0 0 0 0.146 0 0.278-0.059 0.374-0.155l0.374-0.374h6.574c-0.225 0.622-0.811 1.058-1.498 1.059h-13.769c-0.687-0.001-1.272-0.438-1.494-1.048l-0.004-0.011z"></path>
<path fill="#fc8b04" style="fill: var(--color1, #fc8b04)" d="M10.11 5.942c0 0.293-0.237 0.53-0.53 0.53s-0.53-0.237-0.53-0.53c0-0.293 0.237-0.53 0.53-0.53s0.53 0.237 0.53 0.53z"></path>
<path fill="#fc8b04" style="fill: var(--color1, #fc8b04)" d="M11.699 5.942c0 0.293-0.237 0.53-0.53 0.53s-0.53-0.237-0.53-0.53c0-0.293 0.237-0.53 0.53-0.53s0.53 0.237 0.53 0.53z"></path>
<path fill="#fc8b04" style="fill: var(--color1, #fc8b04)" d="M13.288 5.942c0 0.293-0.237 0.53-0.53 0.53s-0.53-0.237-0.53-0.53c0-0.293 0.237-0.53 0.53-0.53s0.53 0.237 0.53 0.53z"></path>
<path fill="#fc8b04" style="fill: var(--color1, #fc8b04)" d="M9.58 9.119h1.589v1.061h-1.589z"></path>
<path fill="#fc8b04" style="fill: var(--color1, #fc8b04)" d="M12.758 9.119h3.707v1.061h-3.707z"></path>
<path fill="#fc8b04" style="fill: var(--color1, #fc8b04)" d="M17.524 9.119h1.589v1.061h-1.589z"></path>
<path fill="#fc8b04" style="fill: var(--color1, #fc8b04)" d="M9.58 11.767h1.589v1.059h-1.589z"></path>
<path fill="#fc8b04" style="fill: var(--color1, #fc8b04)" d="M12.758 11.767h2.118v1.059h-2.118z"></path>
<path fill="#fc8b04" style="fill: var(--color1, #fc8b04)" d="M15.935 11.767h3.177v1.059h-3.177z"></path>
<path fill="#fc8b04" style="fill: var(--color1, #fc8b04)" d="M9.58 14.415h1.589v1.061h-1.589z"></path>
<path fill="#fc8b04" style="fill: var(--color1, #fc8b04)" d="M12.758 14.415h6.355v1.061h-6.355z"></path>
<path fill="#fc8b04" style="fill: var(--color1, #fc8b04)" d="M9.58 17.062h1.589v1.059h-1.589z"></path>
<path fill="#fc8b04" style="fill: var(--color1, #fc8b04)" d="M12.758 17.062h2.118v1.059h-2.118z"></path>
<path fill="#fc8b04" style="fill: var(--color1, #fc8b04)" d="M15.935 17.062h3.177v1.059h-3.177z"></path>
<path fill="#fc8b04" style="fill: var(--color1, #fc8b04)" d="M22.445 11.393l-1.589 1.589c-0.096 0.096-0.155 0.228-0.155 0.374s0.059 0.279 0.155 0.374l1.589 1.588 0.749-0.749-1.214-1.214 1.214-1.214z"></path>
<path fill="#fc8b04" style="fill: var(--color1, #fc8b04)" d="M27.431 11.393l-0.749 0.749 1.214 1.214-1.214 1.214 0.749 0.749 1.589-1.589c0.096-0.096 0.155-0.228 0.155-0.374s-0.059-0.279-0.155-0.374v0z"></path>
<path fill="#fc8b04" style="fill: var(--color1, #fc8b04)" d="M23.376 16.356l2.117-6.358 1.006 0.335-2.117 6.359z"></path>
</symbol>
<symbol id="icon-delivery" viewBox="0 0 32 32">
<path fill="#fc8b04" style="fill: var(--color1, #fc8b04)" d="M15.986 0c-8.83 0.009-15.984 7.169-15.984 16 0 8.837 7.163 16 16 16s16-7.163 16-16v0c0-0.002 0-0.003 0-0.005 0-8.834-7.161-15.995-15.995-15.995-0.007 0-0.015 0-0.022 0h0.001zM16.001 28.8c-7.066 0-12.795-5.728-12.795-12.795s5.728-12.795 12.795-12.795c7.066 0 12.795 5.728 12.795 12.795v0c0 7.066-5.728 12.795-12.795 12.795-0 0-0.001 0-0.001 0h0z"></path>
<path fill="#fc8b04" style="fill: var(--color1, #fc8b04)" d="M16.801 8.001h-2.401v9.6l8.4 5.039 1.2-1.969-7.201-4.27z"></path>
</symbol>
<symbol id="icon-intelligence" viewBox="0 0 26 32">
<path fill="#fc8b04" style="fill: var(--color1, #fc8b04)" d="M13.112 3.421c0.215 0 0.389-0.174 0.389-0.389v0-2.595c-0.007-0.21-0.178-0.377-0.389-0.377s-0.382 0.168-0.389 0.377v2.596c0 0.215 0.174 0.389 0.389 0.389h0zM13.112 3.421"></path>
<path fill="#fc8b04" style="fill: var(--color1, #fc8b04)" d="M22.576 13.193h2.596c0.21-0.007 0.377-0.178 0.377-0.389s-0.168-0.382-0.377-0.389h-2.596c-0.004-0-0.008-0-0.012-0-0.215 0-0.389 0.174-0.389 0.389s0.174 0.389 0.389 0.389c0.004 0 0.008-0 0.012-0h-0.001zM22.576 13.193"></path>
<path fill="#fc8b04" style="fill: var(--color1, #fc8b04)" d="M3.032 12.413h-2.595c-0.004-0-0.008-0-0.012-0-0.215 0-0.389 0.174-0.389 0.389s0.174 0.389 0.389 0.389c0.004 0 0.008-0 0.012-0h2.595c0.004 0 0.008 0 0.012 0 0.215 0 0.389-0.174 0.389-0.389s-0.174-0.389-0.389-0.389c-0.004 0-0.008 0-0.012 0h0.001zM3.032 12.413"></path>
<path fill="#fc8b04" style="fill: var(--color1, #fc8b04)" d="M22.204 3.403c-0.070-0.070-0.168-0.114-0.275-0.114s-0.205 0.044-0.275 0.114v0l-2.025 2.025c-0.070 0.070-0.113 0.167-0.113 0.274 0 0.215 0.174 0.389 0.389 0.389 0.107 0 0.203-0.043 0.274-0.112l2.025-2.025c0.070-0.070 0.114-0.168 0.114-0.275s-0.044-0.205-0.114-0.275v0zM22.204 3.403"></path>
<path fill="#fc8b04" style="fill: var(--color1, #fc8b04)" d="M5.704 6.093c0.215-0 0.389-0.174 0.389-0.389 0-0.107-0.044-0.205-0.114-0.275l-2.025-2.025c-0.070-0.066-0.164-0.107-0.268-0.107-0.215 0-0.389 0.174-0.389 0.389 0 0.104 0.041 0.198 0.107 0.268l2.025 2.025c0.071 0.071 0.168 0.114 0.275 0.114 0 0 0 0 0 0v0zM5.704 6.093"></path>
<path fill="#fc8b04" style="fill: var(--color1, #fc8b04)" d="M12.804 31.952c0.215 0 0.389-0.174 0.389-0.389v0-0.783h2.213c0.961-0.001 1.74-0.78 1.741-1.741v-4.394c0.013-1.709 0.744-3.244 1.907-4.32l0.004-0.004c1.796-1.68 2.916-4.065 2.916-6.711 0-5.037-4.056-9.126-9.079-9.18l-0.005-0h-0.086c-5.068 0-9.176 4.108-9.176 9.176 0 2.672 1.142 5.077 2.964 6.754l0.006 0.006c1.147 1.067 1.862 2.584 1.862 4.269 0 0.006 0 0.012-0 0.017v-0.001 4.387c0.001 0.961 0.78 1.74 1.741 1.741h2.214v0.783c0 0.215 0.174 0.389 0.389 0.389v0zM7.124 19.794c-1.674-1.54-2.72-3.742-2.72-6.187 0-4.638 3.76-8.398 8.398-8.398 0 0 0 0 0 0h0.079c4.605 0.043 8.322 3.786 8.322 8.398 0 2.425-1.028 4.61-2.671 6.143l-0.005 0.005c-1.226 1.139-2.027 2.721-2.145 4.49l-0.001 0.020h-7.154c-0.102-1.772-0.889-3.343-2.098-4.466l-0.004-0.004zM9.239 29.039v-0.192h4.68c0.004 0 0.008 0 0.012 0 0.215 0 0.389-0.174 0.389-0.389s-0.174-0.389-0.389-0.389c-0.004 0-0.008 0-0.012 0h-4.679v-1.154h1.165c0.21-0.007 0.377-0.178 0.377-0.389s-0.168-0.382-0.377-0.389h-1.165v-1.094h7.13v1.094h-4.566c-0.21 0.007-0.377 0.178-0.377 0.389s0.168 0.382 0.377 0.389h4.567v1.155h-1.052c-0.21 0.007-0.377 0.178-0.377 0.389s0.168 0.382 0.377 0.389h1.052v0.192c-0.001 0.531-0.431 0.961-0.962 0.962h-5.205c-0.532-0.001-0.962-0.432-0.963-0.963v-0zM9.239 29.039"></path>
<path fill="#fc8b04" style="fill: var(--color1, #fc8b04)" d="M14.548 13.636c0.089-0.065 0.201-0.104 0.322-0.104 0.305 0 0.552 0.247 0.552 0.552 0 0.025-0.002 0.049-0.005 0.073l0-0.003c-0.001 0.012-0.002 0.027-0.002 0.042 0 0.215 0.174 0.389 0.389 0.389 0.194 0 0.355-0.142 0.384-0.327l0-0.002c0.007-0.052 0.011-0.112 0.011-0.173 0-0.51-0.287-0.952-0.709-1.174l-0.007-0.003c-0.014-0.046-0.022-0.099-0.022-0.154 0-0.131 0.045-0.251 0.121-0.345l-0.001 0.001c0.053-0.066 0.086-0.151 0.086-0.244 0-0.215-0.174-0.389-0.389-0.389-0.122 0-0.232 0.057-0.303 0.145l-0.001 0.001c-0.18 0.223-0.289 0.511-0.289 0.823 0 0.009 0 0.017 0 0.026l-0-0.001c-0.225 0.031-0.425 0.115-0.595 0.239l0.004-0.003c-0.105 0.071-0.172 0.189-0.172 0.323 0 0.215 0.174 0.389 0.389 0.389 0.090 0 0.173-0.031 0.239-0.082l-0.001 0.001zM14.548 13.636"></path>
<path fill="#fc8b04" style="fill: var(--color1, #fc8b04)" d="M14.724 10.092c0.052 0.020 0.115 0.037 0.179 0.048l0.007 0.001c0.004 0.048 0.010 0.090 0.019 0.132l-0.001-0.007c0.025 0.12 0.065 0.227 0.12 0.325l-0.003-0.006c0.066 0.125 0.196 0.209 0.345 0.209 0.215 0 0.389-0.174 0.389-0.389 0-0.072-0.019-0.139-0.053-0.197l0.001 0.002c-0.027-0.048-0.043-0.105-0.043-0.166 0-0.165 0.117-0.304 0.273-0.336l0.002-0c0.020-0.004 0.044-0.007 0.068-0.007 0.030 0 0.059 0.004 0.087 0.011l-0.002-0.001c0.031 0.009 0.066 0.014 0.103 0.014 0.215 0 0.389-0.174 0.389-0.389 0-0.183-0.126-0.336-0.296-0.378l-0.003-0.001c-0.083-0.022-0.179-0.035-0.277-0.035-0.368 0-0.695 0.178-0.899 0.452l-0.002 0.003c-0.008 0.001-0.016 0.001-0.025 0.001-0.095 0-0.18-0.039-0.242-0.102l-0-0c-0.070-0.068-0.166-0.11-0.271-0.11-0.215 0-0.389 0.174-0.389 0.389 0 0.103 0.040 0.196 0.105 0.266l-0-0c0.115 0.118 0.256 0.21 0.413 0.268l0.008 0.002zM14.724 10.092"></path>
<path fill="#fc8b04" style="fill: var(--color1, #fc8b04)" d="M15.922 15.747c-0.118-0.019-0.222-0.064-0.312-0.127l0.002 0.002c-0.062-0.044-0.14-0.070-0.223-0.070-0.215 0-0.389 0.174-0.389 0.389 0 0.131 0.065 0.248 0.165 0.318l0.001 0.001c0.243 0.173 0.546 0.276 0.874 0.276 0.068 0 0.136-0.005 0.202-0.013l-0.008 0.001c0.046 0.282 0.163 0.531 0.333 0.736l-0.002-0.003c0.072 0.082 0.177 0.134 0.294 0.134 0.215 0 0.389-0.174 0.389-0.389 0-0.091-0.031-0.174-0.083-0.241l0.001 0.001c-0.106-0.129-0.17-0.295-0.17-0.477 0-0.070 0.009-0.137 0.027-0.201l-0.001 0.005c0-0.006 0.004-0.012 0.005-0.017 0.038-0.126 0.103-0.234 0.19-0.321v0c0.075-0.071 0.121-0.171 0.121-0.283 0-0.215-0.174-0.389-0.389-0.389-0.111 0-0.211 0.046-0.282 0.121l-0 0c-0.139 0.139-0.251 0.305-0.329 0.489l-0.004 0.010c-0.085 0.036-0.185 0.058-0.289 0.058-0.042 0-0.084-0.004-0.124-0.010l0.004 0.001zM15.922 15.747"></path>
<path fill="#fc8b04" style="fill: var(--color1, #fc8b04)" d="M14.798 19.493c0.427-0.001 0.82-0.146 1.132-0.389l-0.004 0.003c0.239 0.121 0.52 0.191 0.818 0.191 1.020 0 1.847-0.827 1.847-1.847 0-0 0-0.001 0-0.001v0-0.433c0.837-0.367 1.41-1.188 1.41-2.142 0-0.655-0.27-1.247-0.705-1.67l-0-0c0.283-0.314 0.456-0.731 0.456-1.189 0-0.616-0.313-1.159-0.79-1.478l-0.006-0.004c-0.042-0.027-0.084-0.053-0.127-0.077 0.034-0.149 0.053-0.319 0.053-0.494 0-1.29-1.046-2.335-2.335-2.335-0.138 0-0.272 0.012-0.403 0.035l0.014-0.002c0-0.011 0-0.022 0-0.032-0.014-0.876-0.727-1.581-1.605-1.581s-1.591 0.705-1.605 1.58v10.021c0.001 1.020 0.828 1.847 1.848 1.848h0zM13.728 7.626c0-0.001 0-0.002 0-0.003 0-0.457 0.37-0.827 0.827-0.827s0.827 0.37 0.827 0.827c0 0.134-0.032 0.261-0.089 0.373l0.002-0.005c-0.045 0.029-0.089 0.058-0.132 0.090-0.101 0.071-0.166 0.188-0.166 0.319 0 0.215 0.174 0.389 0.389 0.389 0.091 0 0.174-0.031 0.24-0.083l-0.001 0.001c0.255-0.189 0.576-0.303 0.923-0.303 0.86 0 1.557 0.697 1.557 1.557 0 0.286-0.077 0.554-0.212 0.785l0.004-0.007c-0.007 0.012-0.015 0.028-0.021 0.043l-0.001 0.003c-0.055-0.152-0.198-0.259-0.367-0.259-0.181 0-0.332 0.123-0.376 0.29l-0.001 0.003c-0.022 0.083-0.035 0.178-0.035 0.276 0 0.191 0.048 0.371 0.132 0.528l-0.003-0.006c-0.018 0.046-0.044 0.085-0.077 0.117l-0 0c-0.064 0.069-0.102 0.162-0.102 0.263 0 0.215 0.174 0.389 0.389 0.389 0.098 0 0.188-0.036 0.256-0.096l-0 0c0.047-0.046 0.090-0.096 0.129-0.15l0.002-0.003c0.022 0.005 0.047 0.007 0.072 0.007h0c0 0 0 0 0 0 0.215 0 0.389-0.174 0.389-0.389 0-0.153-0.088-0.285-0.216-0.349l-0.002-0.001c-0.114-0.057-0.191-0.173-0.191-0.308 0-0.005 0-0.009 0-0.014l-0 0.001c0.060 0.142 0.198 0.239 0.358 0.239 0.119 0 0.226-0.054 0.297-0.138l0-0.001c0.269 0.182 0.443 0.486 0.443 0.83 0 0.293-0.126 0.556-0.326 0.739l-0.001 0.001c-0.287-0.137-0.623-0.217-0.979-0.217-0 0-0.001 0-0.001 0h0c-0.21 0.007-0.377 0.178-0.377 0.389s0.168 0.382 0.377 0.389h0.001c0.86 0 1.556 0.697 1.556 1.556s-0.697 1.556-1.556 1.556v0c-0.21 0.007-0.377 0.178-0.377 0.389s0.168 0.382 0.377 0.389h0.001c0.049 0 0.097-0.002 0.144-0.005v0.248c0 0.006 0 0.013 0 0.020 0 0.591-0.479 1.070-1.070 1.070s-1.070-0.479-1.070-1.070c0-0.007 0-0.014 0-0.021v0.001c0-0.004 0-0.008 0-0.012 0-0.215-0.174-0.389-0.389-0.389s-0.389 0.174-0.389 0.389c0 0.004 0 0.008 0 0.012v-0.001c0 0 0 0 0 0 0 0.433 0.15 0.831 0.4 1.145l-0.003-0.004c-0.144 0.077-0.315 0.123-0.497 0.123-0.589 0-1.067-0.478-1.067-1.067 0-0.001 0-0.002 0-0.003v0zM13.728 7.626"></path>
<path fill="#fc8b04" style="fill: var(--color1, #fc8b04)" d="M9.681 19.107c0.309 0.24 0.702 0.385 1.129 0.385 1.020 0 1.847-0.827 1.847-1.847 0-0 0-0.001 0-0.001v0-10.018c0-0.007 0-0.016 0-0.024 0-0.886-0.719-1.605-1.605-1.605s-1.605 0.719-1.605 1.605c0 0.008 0 0.017 0 0.025v-0.001c0 0.011 0 0.022 0 0.032-0.117-0.021-0.252-0.032-0.39-0.032h-0c-0.001 0-0.002 0-0.003 0-1.287 0-2.331 1.044-2.331 2.331 0 0.177 0.020 0.348 0.057 0.514l-0.003-0.016c-0.043 0.024-0.086 0.049-0.127 0.077-0.483 0.323-0.797 0.866-0.797 1.482 0 0.458 0.173 0.876 0.458 1.191l-0.001-0.002c-0.435 0.424-0.704 1.016-0.704 1.67 0 0.955 0.574 1.776 1.396 2.137l0.015 0.006v0.433c0 0 0 0.001 0 0.001 0 1.020 0.827 1.847 1.847 1.847 0.298 0 0.58-0.071 0.829-0.196l-0.011 0.005zM7.794 17.45v-0.248c0.048 0.003 0.097 0.005 0.144 0.005 0.004 0 0.008 0 0.012 0 0.215 0 0.389-0.174 0.389-0.389s-0.174-0.389-0.389-0.389c-0.004 0-0.008 0-0.012 0h0.001c-0.86 0-1.556-0.697-1.556-1.556s0.697-1.556 1.556-1.556v0c0.004 0 0.008 0 0.012 0 0.215 0 0.389-0.174 0.389-0.389s-0.174-0.389-0.389-0.389c-0.004 0-0.008 0-0.012 0h0.001c-0 0-0 0-0.001 0-0.355 0-0.692 0.080-0.993 0.223l0.014-0.006c-0.201-0.184-0.327-0.447-0.327-0.74 0-0.345 0.174-0.648 0.44-0.828l0.003-0.002c0.072 0.085 0.178 0.139 0.297 0.139 0.16 0 0.298-0.098 0.357-0.236l0.001-0.003c0 0.004 0 0.009 0 0.014 0 0.134-0.077 0.25-0.189 0.307l-0.002 0.001c-0.13 0.065-0.219 0.197-0.219 0.35 0 0.215 0.174 0.389 0.389 0.389 0 0 0 0 0 0v0c0.026-0 0.051-0.003 0.075-0.008l-0.003 0c0.041 0.057 0.084 0.107 0.131 0.153l0 0c0.070 0.069 0.166 0.111 0.272 0.111 0.215 0 0.389-0.174 0.389-0.389 0-0.109-0.045-0.207-0.117-0.278l-0-0c-0.033-0.032-0.059-0.071-0.076-0.115l-0.001-0.002c0.081-0.151 0.129-0.331 0.129-0.522 0-0.098-0.013-0.193-0.036-0.284l0.002 0.008c-0.045-0.169-0.196-0.292-0.377-0.292-0.168 0-0.312 0.107-0.366 0.256l-0.001 0.003c-0.007-0.018-0.015-0.033-0.023-0.048l0.001 0.002c-0.132-0.224-0.209-0.492-0.209-0.78 0-0.86 0.697-1.556 1.556-1.556 0.349 0 0.671 0.115 0.931 0.309l-0.004-0.003c0.065 0.051 0.149 0.082 0.239 0.082 0.215 0 0.389-0.174 0.389-0.389 0-0.132-0.065-0.248-0.165-0.318l-0.001-0.001c-0.043-0.032-0.087-0.061-0.132-0.090-0.054-0.107-0.085-0.232-0.085-0.365 0-0.456 0.37-0.826 0.826-0.826s0.826 0.37 0.826 0.826c0 0 0 0 0 0v0 10.018c0 0.001 0 0.002 0 0.003 0 0.589-0.478 1.067-1.067 1.067-0.182 0-0.353-0.045-0.503-0.125l0.006 0.003c0.248-0.31 0.397-0.709 0.397-1.142 0-0 0-0 0-0v0c0-0.004 0-0.008 0-0.012 0-0.215-0.174-0.389-0.389-0.389s-0.389 0.174-0.389 0.389c0 0.004 0 0.008 0 0.012v-0.001c-0.011 0.582-0.486 1.050-1.070 1.050s-1.059-0.468-1.070-1.049v-0.001zM7.794 17.45"></path>
<path fill="#fc8b04" style="fill: var(--color1, #fc8b04)" d="M10.923 12.769c0-0.007 0-0.016 0-0.025 0-0.313-0.109-0.6-0.291-0.826l0.002 0.003c-0.072-0.089-0.181-0.146-0.304-0.146-0.215 0-0.389 0.174-0.389 0.389 0 0.092 0.032 0.177 0.086 0.244l-0.001-0.001c0.075 0.093 0.121 0.213 0.121 0.344 0 0.055-0.008 0.108-0.023 0.158l0.001-0.004c-0.429 0.226-0.716 0.668-0.716 1.178 0 0.061 0.004 0.121 0.012 0.18l-0.001-0.007c0.030 0.188 0.191 0.329 0.385 0.329 0.215 0 0.389-0.174 0.389-0.389 0-0.015-0.001-0.029-0.002-0.043l0 0.002c-0.003-0.021-0.005-0.046-0.005-0.072 0-0.062 0.010-0.121 0.029-0.177l-0.001 0.004c0.075-0.221 0.281-0.378 0.524-0.378 0.121 0 0.233 0.039 0.324 0.105l-0.002-0.001c0.065 0.051 0.148 0.081 0.238 0.081 0.215 0 0.389-0.174 0.389-0.389 0-0.134-0.068-0.252-0.171-0.322l-0.001-0.001c-0.166-0.121-0.367-0.205-0.585-0.236l-0.007-0.001zM10.923 12.769"></path>
<path fill="#fc8b04" style="fill: var(--color1, #fc8b04)" d="M9.496 9.712c0.025-0.007 0.054-0.011 0.084-0.011 0.189 0 0.343 0.154 0.343 0.343 0 0.024-0.002 0.047-0.007 0.070l0-0.002c-0.008 0.037-0.020 0.070-0.037 0.1l0.001-0.002c-0.033 0.056-0.052 0.123-0.052 0.195 0 0.215 0.174 0.389 0.389 0.389 0.149 0 0.278-0.084 0.344-0.207l0.001-0.002c0.052-0.092 0.092-0.199 0.116-0.312l0.001-0.007c0.007-0.035 0.013-0.077 0.017-0.121l0-0.004c0.071-0.013 0.134-0.030 0.194-0.052l-0.008 0.003c0.165-0.060 0.306-0.153 0.42-0.27l0-0c0.065-0.069 0.105-0.163 0.105-0.265 0-0.215-0.174-0.389-0.389-0.389-0.106 0-0.202 0.042-0.272 0.111l0-0c-0.061 0.063-0.147 0.102-0.242 0.102-0.009 0-0.017-0-0.026-0.001l0.001 0c-0.206-0.277-0.533-0.455-0.901-0.455-0.099 0-0.194 0.013-0.285 0.037l0.008-0.002c-0.173 0.042-0.299 0.196-0.299 0.379 0 0.215 0.174 0.389 0.389 0.389 0.037 0 0.072-0.005 0.106-0.015l-0.003 0.001zM9.496 9.712"></path>
<path fill="#fc8b04" style="fill: var(--color1, #fc8b04)" d="M9.043 17.256c0.167-0.202 0.284-0.451 0.329-0.724l0.001-0.009c0.058 0.008 0.125 0.013 0.193 0.013 0.086 0 0.17-0.007 0.251-0.021l-0.009 0.001c0.24-0.039 0.454-0.13 0.637-0.259l-0.005 0.003c0.095-0.072 0.155-0.184 0.155-0.311 0-0.215-0.174-0.389-0.389-0.389-0.079 0-0.152 0.024-0.214 0.064l0.001-0.001c-0.12 0.085-0.269 0.135-0.43 0.135-0.104 0-0.204-0.021-0.294-0.060l0.005 0.002c-0.081-0.194-0.194-0.36-0.333-0.499v0c-0.070-0.066-0.164-0.107-0.268-0.107-0.215 0-0.389 0.174-0.389 0.389 0 0.104 0.041 0.198 0.107 0.268l-0-0c0.087 0.087 0.153 0.195 0.189 0.315l0.001 0.005c0 0.006 0.003 0.012 0.005 0.017 0.016 0.059 0.026 0.126 0.026 0.195 0 0.182-0.064 0.348-0.171 0.478l0.001-0.001c-0.057 0.067-0.091 0.155-0.091 0.25 0 0.215 0.174 0.389 0.389 0.389 0.122 0 0.231-0.056 0.302-0.144l0.001-0.001zM9.043 17.256"></path>
</symbol>
<symbol id="icon-profitable" viewBox="0 0 32 32">
<path fill="#fc8b04" style="fill: var(--color1, #fc8b04)" d="M31.673 31.667h-31c-0.372 0-0.674-0.302-0.674-0.674s0.302-0.674 0.674-0.674v0h31c0.372 0 0.674 0.302 0.674 0.674s-0.302 0.674-0.674 0.674v0z"></path>
<path fill="#fc8b04" style="fill: var(--color1, #fc8b04)" d="M8.761 31.667h-6.74c-0.372-0.001-0.673-0.302-0.673-0.673v-7.413c0.002-0.744 0.604-1.346 1.348-1.348h5.391c0.744 0.002 1.347 0.604 1.348 1.348v7.413c-0.001 0.372-0.302 0.673-0.673 0.673h-0zM2.696 30.319h5.391v-6.739h-5.391z"></path>
<path fill="#fc8b04" style="fill: var(--color1, #fc8b04)" d="M19.544 31.665h-6.74c-0.372-0.001-0.673-0.302-0.673-0.673v-15.5c0.002-0.744 0.604-1.347 1.348-1.348h5.391c0.744 0.002 1.346 0.604 1.348 1.348v15.5c-0.001 0.372-0.302 0.673-0.673 0.673h-0zM13.479 30.317h5.391v-14.825h-5.391z"></path>
<path fill="#fc8b04" style="fill: var(--color1, #fc8b04)" d="M30.325 31.665h-6.74c-0.372-0.001-0.673-0.303-0.673-0.675 0 0 0 0 0 0v0-23.585c0.002-0.744 0.604-1.346 1.348-1.348h5.391c0.744 0.002 1.346 0.604 1.348 1.348v23.585c0 0 0 0 0 0 0 0.372-0.301 0.674-0.673 0.675h-0zM24.26 30.324h5.391v-22.919h-5.391z"></path>
<path fill="#fc8b04" style="fill: var(--color1, #fc8b04)" d="M3.369 14.144c-0.005 0-0.011 0-0.018 0-0.368 0-0.667-0.298-0.667-0.667 0-0.19 0.079-0.361 0.207-0.483l0-0 12.133-12.133c0.122-0.122 0.291-0.197 0.477-0.197 0.372 0 0.674 0.302 0.674 0.674 0 0.186-0.075 0.355-0.197 0.477l-12.133 12.133c-0.121 0.122-0.288 0.197-0.473 0.197-0.001 0-0.002 0-0.003 0h0z"></path>
<path fill="#fc8b04" style="fill: var(--color1, #fc8b04)" d="M15.5 7.405c-0.372-0.001-0.673-0.302-0.673-0.673v-4.717h-4.719c-0.372 0-0.674-0.302-0.674-0.674s0.302-0.674 0.674-0.674h5.391c0.372 0.001 0.673 0.302 0.673 0.673v5.392c-0.001 0.371-0.301 0.672-0.672 0.673h-0z"></path>
</symbol>
<symbol id="icon-scalability" viewBox="0 0 32 32">
<path fill="#fc8b04" style="fill: var(--color1, #fc8b04)" d="M28.333 32h-24.666c-2.025-0.002-3.665-1.643-3.667-3.667v-24.666c0.002-2.025 1.643-3.665 3.667-3.667h24.666c2.024 0.002 3.665 1.643 3.667 3.667v24.666c-0.002 2.024-1.643 3.665-3.667 3.667h-0zM3.667 2c-0.92 0.001-1.666 0.747-1.667 1.667v24.666c0.001 0.92 0.747 1.666 1.667 1.667h24.666c0.92-0.001 1.666-0.747 1.667-1.667v-24.666c-0.001-0.92-0.747-1.666-1.667-1.667h-0z"></path>
<path fill="#fc8b04" style="fill: var(--color1, #fc8b04)" d="M25.666 16c-0.552 0-1-0.448-1-1v0-7.666h-7.667c-0.552 0-1-0.448-1-1s0.448-1 1-1v0h8.661c0.552 0 1 0.448 1 1v0 8.661c0 0.001 0 0.003 0 0.005 0 0.55-0.444 0.996-0.993 1h-0z"></path>
<path fill="#fc8b04" style="fill: var(--color1, #fc8b04)" d="M14.333 18.667c-0.552-0-0.999-0.448-0.999-1 0-0.276 0.112-0.527 0.293-0.708v0l11.333-11.333c0.181-0.181 0.431-0.293 0.708-0.293 0.553 0 1.001 0.448 1.001 1.001 0 0.276-0.112 0.526-0.293 0.708l-11.333 11.338c-0.18 0.178-0.427 0.288-0.701 0.288-0.003 0-0.006 0-0.009-0h0z"></path>
<path fill="#fc8b04" style="fill: var(--color1, #fc8b04)" d="M10.999 32c-0.552 0-1-0.448-1-1v-8.999h-8.999c-0.552 0-1-0.448-1-1s0.448-1 1-1h9.999c0.552 0 1 0.448 1 1v0 9.999c0 0.552-0.448 1-1 1v0z"></path>
</symbol>
<symbol id="icon-security" viewBox="0 0 32 32">
<path fill="#fc8b04" style="fill: var(--color1, #fc8b04)" d="M29.21 5.424c-4.781-1.343-8.957-3.163-12.81-5.464l0.239 0.132c-0.096-0.058-0.212-0.092-0.336-0.092s-0.24 0.034-0.339 0.094l0.003-0.002c-3.616 2.188-7.793 4.009-12.214 5.247l-0.358 0.086c-0.282 0.079-0.486 0.334-0.486 0.637 0 0 0 0 0 0v0 6.751c-0.001 0.074-0.002 0.161-0.002 0.249 0 5.468 2.259 10.407 5.895 13.937l0.005 0.005c2.896 2.838 6.271 4.407 7.495 4.407s4.599-1.569 7.495-4.407c3.643-3.535 5.904-8.476 5.904-13.946 0-0.086-0.001-0.172-0.002-0.258l0 0.013v-6.751c-0-0.304-0.206-0.559-0.486-0.636l-0.005-0.001zM28.375 12.812c0.001 0.071 0.002 0.155 0.002 0.239 0 5.101-2.107 9.71-5.498 13.004l-0.004 0.004c-1.747 1.862-3.966 3.26-6.467 4.004l-0.103 0.026c-2.605-0.77-4.825-2.169-6.564-4.023l-0.007-0.008c-3.396-3.298-5.503-7.907-5.503-13.008 0-0.084 0.001-0.168 0.002-0.251l-0 0.013v-6.255c4.596-1.318 8.602-3.067 12.313-5.264l-0.241 0.132c3.466 2.047 7.472 3.796 11.693 5.040l0.38 0.096z"></path>
<path fill="#fc8b04" style="fill: var(--color1, #fc8b04)" d="M10.447 6.489c-0.099-0.247-0.337-0.418-0.614-0.418-0.087 0-0.171 0.017-0.247 0.048l0.004-0.002c-1.18 0.465-2.391 0.893-3.601 1.273-0.27 0.087-0.462 0.336-0.463 0.63v0 2.551c0 0.365 0.296 0.66 0.66 0.66s0.66-0.296 0.66-0.66v0-2.068c1.085-0.351 2.167-0.739 3.226-1.156 0.248-0.099 0.42-0.337 0.42-0.615 0-0.087-0.017-0.17-0.047-0.246l0.002 0.004z"></path>
<path fill="#fc8b04" style="fill: var(--color1, #fc8b04)" d="M11.702 6.614c0 0 0 0 0 0 0.096 0 0.187-0.020 0.269-0.057l-0.004 0.002h0.012c0.234-0.105 0.394-0.336 0.394-0.604 0-0.365-0.296-0.661-0.661-0.661-0.097 0-0.188 0.021-0.271 0.058l0.004-0.002h-0.010c-0.235 0.105-0.396 0.336-0.396 0.605 0 0.365 0.296 0.66 0.66 0.66 0.001 0 0.002 0 0.003 0h-0z"></path>
<path fill="#fc8b04" style="fill: var(--color1, #fc8b04)" d="M24.176 21.302c-0.102-0.068-0.227-0.108-0.362-0.108-0.231 0-0.434 0.118-0.552 0.297l-0.002 0.002c-0.587 0.889-1.212 1.665-1.902 2.377l0.004-0.004c-0.579 0.599-1.196 1.151-1.851 1.657l-0.039 0.029c-0.159 0.122-0.26 0.312-0.26 0.525 0 0.365 0.296 0.661 0.661 0.661 0.151 0 0.291-0.051 0.402-0.137l-0.002 0.001c0.751-0.576 1.418-1.172 2.039-1.813l0.005-0.005c0.743-0.766 1.42-1.605 2.015-2.503l0.040-0.064c0.067-0.102 0.107-0.226 0.107-0.36 0-0.232-0.12-0.436-0.3-0.554l-0.003-0.002z"></path>
<path fill="#fc8b04" style="fill: var(--color1, #fc8b04)" d="M17.932 26.591l-0.038 0.022c-0.198 0.116-0.33 0.329-0.33 0.572 0 0.365 0.296 0.66 0.66 0.66 0.122 0 0.236-0.033 0.334-0.091l-0.003 0.002 0.044-0.026c0.197-0.117 0.327-0.328 0.327-0.57 0-0.365-0.296-0.661-0.661-0.661-0.123 0-0.238 0.034-0.337 0.092l0.003-0.002z"></path>
<path fill="#fc8b04" style="fill: var(--color1, #fc8b04)" d="M11.799 14.358c-0.389-0.389-0.926-0.629-1.519-0.629-1.187 0-2.149 0.962-2.149 2.149 0 0.593 0.241 1.13 0.629 1.519v0l3.901 3.901c0.389 0.389 0.926 0.629 1.519 0.629s1.13-0.241 1.519-0.629l8.145-8.145c0.389-0.389 0.629-0.926 0.629-1.519 0-1.187-0.962-2.149-2.149-2.149-0.593 0-1.13 0.241-1.519 0.629v0l-6.625 6.625zM21.741 11.049c0.153-0.189 0.385-0.309 0.645-0.309 0.457 0 0.828 0.371 0.828 0.828 0 0.26-0.12 0.492-0.307 0.644l-0.002 0.001-8.145 8.145c-0.149 0.148-0.355 0.239-0.582 0.239s-0.432-0.091-0.582-0.239l0 0-3.894-3.889c-0.114-0.141-0.183-0.322-0.183-0.519 0-0.457 0.371-0.828 0.828-0.828 0.197 0 0.378 0.069 0.52 0.184l-0.002-0.001 2.849 2.849c0.12 0.119 0.285 0.193 0.467 0.193s0.347-0.074 0.467-0.193v0z"></path>
</symbol>
<symbol id="icon-software" viewBox="0 0 32 32">
<path fill="#fc8b04" style="fill: var(--color1, #fc8b04)" d="M13.459 8.372c0.256-0.001 0.464-0.209 0.465-0.465v-0.539c0-0.004 0-0.008 0-0.013 0-0.257-0.208-0.466-0.466-0.466s-0.466 0.208-0.466 0.466c0 0.005 0 0.009 0 0.014v-0.001 0.539c0 0 0 0 0 0 0 0.257 0.208 0.465 0.465 0.465 0 0 0.001 0 0.001 0h-0zM6.954 8.372c0.257-0.001 0.465-0.209 0.466-0.466v-0.539c0-0.004 0-0.008 0-0.013 0-0.257-0.208-0.466-0.466-0.466s-0.466 0.208-0.466 0.466c0 0.005 0 0.009 0 0.014v-0.001 0.539c0 0 0 0 0 0 0 0.257 0.208 0.465 0.465 0.465v0zM6.224 11.734h7.965c0.004 0 0.008 0 0.013 0 0.257 0 0.466-0.208 0.466-0.466s-0.208-0.466-0.466-0.466c-0.005 0-0.009 0-0.014 0h-7.964c-0.252 0.007-0.453 0.213-0.453 0.465s0.201 0.458 0.452 0.465h0.001zM10.206 8.785c0.481-0 0.913-0.213 1.207-0.549l0.002-0.002c0.071-0.081 0.114-0.188 0.114-0.306 0-0.257-0.208-0.465-0.465-0.465-0.14 0-0.265 0.062-0.35 0.159l-0 0.001c-0.124 0.142-0.305 0.231-0.507 0.231s-0.383-0.089-0.506-0.23l-0.001-0.001c-0.086-0.098-0.211-0.16-0.351-0.16-0.257 0-0.465 0.208-0.465 0.465 0 0.117 0.043 0.224 0.115 0.306l-0-0.001c0.295 0.338 0.727 0.55 1.208 0.55h0zM6.224 14.264h7.965c0.004 0 0.008 0 0.013 0 0.257 0 0.466-0.208 0.466-0.466s-0.208-0.466-0.466-0.466c-0.005 0-0.009 0-0.014 0h-7.964c-0.252 0.007-0.453 0.213-0.453 0.465s0.201 0.458 0.452 0.465h0.001zM27.675 1.843h-0.666c-0.004-0-0.008-0-0.013-0-0.257 0-0.466 0.208-0.466 0.466s0.208 0.466 0.466 0.466c0.005 0 0.009-0 0.014-0h0.665c1.774 0.002 3.211 1.439 3.213 3.213v12.538h-1.585v-12.074c-0.001-1.155-0.937-2.090-2.092-2.092h-22.558c-1.154 0.002-2.090 0.937-2.091 2.092v12.074h-1.586v-12.538c0.002-1.774 1.439-3.211 3.213-3.213h20.627c0.252-0.007 0.453-0.213 0.453-0.465s-0.201-0.458-0.452-0.465h-20.628c-2.288 0.003-4.142 1.856-4.144 4.144v14.033c0 0.003 0 0.005 0 0.008 0 2.031 1.464 3.72 3.394 4.069l0.025 0.004c0.024 0.005 0.052 0.007 0.081 0.007 0.257 0 0.465-0.208 0.465-0.465 0-0.228-0.165-0.418-0.382-0.458l-0.003-0c-1.516-0.274-2.65-1.584-2.65-3.158 0-0.002 0-0.004 0-0.007v0-0.564h29.912v0.564c-0.002 1.774-1.439 3.211-3.213 3.213h-21.945c-0.004-0-0.008-0-0.013-0-0.257 0-0.466 0.208-0.466 0.466s0.208 0.466 0.466 0.466c0.005 0 0.009-0 0.014-0h5.568l-0.248 2.697h-0.202c-0.898 0.004-1.655 0.598-1.905 1.414l-0.004 0.014-0.108 0.365c-0.032 0.105-0.050 0.225-0.050 0.349 0 0.683 0.554 1.237 1.237 1.237h11.829c0.683-0 1.237-0.554 1.237-1.237 0-0.124-0.018-0.245-0.053-0.358l0.002 0.009-0.108-0.365c-0.254-0.83-1.012-1.424-1.909-1.428h-0.203l-0.248-2.697h7.109c2.288-0.003 4.142-1.857 4.144-4.144v-14.033c-0.003-2.288-1.856-4.141-4.144-4.144h-0zM16.684 18.526h-13.192v-12.075c0.001-0.641 0.52-1.16 1.161-1.161h12.031zM28.372 18.526h-10.758v-13.236h9.596c0.641 0.001 1.16 0.52 1.161 1.161v12.074zM12.234 24.164h7.398l0.248 2.697h-7.896zM21.018 27.791c0.478 0.002 0.881 0.318 1.014 0.753l0.002 0.008 0.108 0.365c0.008 0.026 0.013 0.056 0.013 0.087 0 0.169-0.137 0.306-0.306 0.306-0 0-0 0-0 0h-11.829c-0.001 0-0.002 0-0.003 0-0.099 0-0.187-0.048-0.242-0.122l-0.001-0.001c-0.038-0.050-0.061-0.114-0.061-0.183 0-0.031 0.005-0.061 0.013-0.089l-0.001 0.002 0.108-0.365c0.135-0.442 0.539-0.758 1.016-0.76h10.168zM16.825 21.345c0-0.493-0.4-0.893-0.893-0.893s-0.893 0.4-0.893 0.893c0 0.493 0.4 0.893 0.893 0.893v0c0.493 0 0.893-0.4 0.893-0.893v0zM26.994 8.885l-3.167-1.829c-0.239-0.14-0.527-0.223-0.834-0.223s-0.594 0.083-0.842 0.227l0.008-0.004-3.167 1.829c-0.222 0.129-0.374 0.359-0.391 0.626l-0 0.002c-0.002 0.017-0.003 0.036-0.004 0.055v4.351c0 0.001 0 0.003 0 0.004 0 0.29 0.158 0.542 0.392 0.677l0.004 0.002 3.167 1.829c0.228 0.133 0.501 0.215 0.792 0.221l0.002 0c0.013 0 0.026 0.002 0.040 0.002s0.027 0 0.040-0.002c0.293-0.007 0.566-0.088 0.802-0.226l-0.008 0.004 3.167-1.828c0.238-0.137 0.395-0.39 0.395-0.679 0-0.001 0-0.003 0-0.004v0-4.351c-0-0.020-0.001-0.039-0.004-0.058l0 0.002c-0.017-0.27-0.17-0.5-0.39-0.627l-0.004-0.002zM22.528 15.57l-2.999-1.732v-3.278l2.631 1.519c0.106 0.062 0.228 0.115 0.356 0.153l0.012 0.003zM22.625 11.274l-2.954-1.706 2.954-1.705c0.106-0.062 0.233-0.098 0.368-0.098s0.262 0.037 0.372 0.1l-0.003-0.002 2.954 1.706-2.954 1.706c-0.105 0.062-0.232 0.098-0.367 0.098s-0.263-0.037-0.373-0.101l0.003 0.002zM26.458 13.838l-2.999 1.732v-3.333c0.14-0.041 0.262-0.094 0.376-0.16l-0.008 0.004 2.63-1.52v3.277zM6.224 16.793h4.416c0.199 0.569 0.731 0.97 1.357 0.97s1.158-0.401 1.354-0.959l0.003-0.010h0.835c0.004 0 0.008 0 0.013 0 0.257 0 0.466-0.208 0.466-0.466s-0.208-0.466-0.466-0.466c-0.005 0-0.009 0-0.014 0h-0.834c-0.199-0.569-0.731-0.97-1.357-0.97s-1.158 0.401-1.354 0.959l-0.003 0.010h-4.416c-0.004-0-0.008-0-0.013-0-0.257 0-0.466 0.208-0.466 0.466s0.208 0.466 0.466 0.466c0.005 0 0.009-0 0.014-0h-0.001zM11.997 15.822c0.278 0 0.503 0.225 0.503 0.503s-0.225 0.503-0.503 0.503c-0.278 0-0.503-0.225-0.503-0.503v0c0.001-0.277 0.226-0.502 0.503-0.502 0 0 0 0 0 0v0z"></path>
</symbol>
<symbol id="icon-performance" viewBox="0 0 32 32">
<path fill="#fc8b04" style="fill: var(--color1, #fc8b04); stroke: var(--color1, #fc8b04)" stroke="#fc8b04" stroke-linejoin="miter" stroke-linecap="butt" stroke-miterlimit="4" stroke-width="0.8" d="M24.408 30.584h-16.266c-0 0-0 0-0 0-0.089 0-0.172-0.026-0.242-0.070l0.002 0.001c-4.521-2.845-7.481-7.808-7.481-13.462 0-8.755 7.098-15.853 15.853-15.853s15.853 7.098 15.853 15.853c0 5.654-2.96 10.617-7.415 13.423l-0.066 0.039c-0.068 0.043-0.15 0.069-0.238 0.069h-0zM8.266 29.678h16c4.202-2.693 6.947-7.339 6.947-12.626 0-8.255-6.692-14.947-14.947-14.947s-14.947 6.692-14.947 14.947c0 5.287 2.745 9.933 6.888 12.59l0.060 0.036z"></path>
<path fill="#fc8b04" style="fill: var(--color1, #fc8b04); stroke: var(--color1, #fc8b04)" stroke="#fc8b04" stroke-linejoin="miter" stroke-linecap="butt" stroke-miterlimit="4" stroke-width="0.8" d="M29.232 25.794c-0.25-0-0.453-0.203-0.453-0.453 0-0.091 0.027-0.176 0.073-0.247l-0.001 0.002c0.656-1.005 1.217-2.161 1.624-3.387l0.030-0.106c0.054-0.193 0.229-0.333 0.437-0.333 0.25 0 0.453 0.203 0.453 0.453 0 0.057-0.011 0.111-0.030 0.162l0.001-0.003c-0.465 1.413-1.062 2.638-1.797 3.765l0.037-0.061c-0.081 0.124-0.218 0.206-0.374 0.208h-0z"></path>
<path fill="#fc8b04" style="fill: var(--color1, #fc8b04); stroke: var(--color1, #fc8b04)" stroke="#fc8b04" stroke-linejoin="miter" stroke-linecap="butt" stroke-miterlimit="4" stroke-width="0.8" d="M26.808 21.922c-0 0-0.001 0-0.001 0-0.25 0-0.453-0.203-0.453-0.453 0-0.064 0.013-0.125 0.037-0.181l-0.001 0.003c0.55-1.249 0.87-2.705 0.872-4.236v-0.001c0-6.068-4.919-10.987-10.987-10.987s-10.987 4.919-10.987 10.987v0c0.002 1.531 0.322 2.988 0.899 4.306l-0.027-0.069c0.023 0.052 0.036 0.113 0.036 0.178 0 0.25-0.203 0.453-0.453 0.453-0.186 0-0.346-0.112-0.416-0.273l-0.001-0.003c-0.595-1.354-0.942-2.931-0.942-4.59v-0c0-6.568 5.325-11.893 11.893-11.893s11.893 5.325 11.893 11.893v0c-0.001 1.659-0.348 3.237-0.972 4.666l0.029-0.075c-0.070 0.164-0.231 0.277-0.417 0.277-0 0-0 0-0 0h0z"></path>
<path fill="#fc8b04" style="fill: var(--color1, #fc8b04); stroke: var(--color1, #fc8b04)" stroke="#fc8b04" stroke-linejoin="miter" stroke-linecap="butt" stroke-miterlimit="4" stroke-width="0.8" d="M16.389 24.429c-1.672 0-3.027-1.355-3.027-3.027s1.355-3.027 3.027-3.027c1.672 0 3.027 1.355 3.027 3.027v0c0 1.672-1.355 3.027-3.027 3.027v0zM16.389 19.28c-1.172 0-2.121 0.95-2.121 2.122s0.95 2.122 2.122 2.122 2.122-0.95 2.122-2.122c0-0.836-0.484-1.559-1.186-1.905l-0.012-0.006c-0.27-0.133-0.587-0.211-0.923-0.211-0 0-0 0-0 0h0z"></path>
<path fill="#fc8b04" style="fill: var(--color1, #fc8b04); stroke: var(--color1, #fc8b04)" stroke="#fc8b04" stroke-linejoin="miter" stroke-linecap="butt" stroke-miterlimit="4" stroke-width="0.8" d="M14.091 20.694c-0.011 0.001-0.024 0.002-0.038 0.002s-0.026-0.001-0.039-0.002l0.002 0c-0.194-0.034-0.345-0.188-0.373-0.382l-0-0.002-1.322-9.456c-0.003-0.019-0.005-0.041-0.005-0.064 0-0.25 0.203-0.453 0.453-0.453 0.168 0 0.314 0.091 0.392 0.226l0.001 0.002 4.741 8.301c0.038 0.065 0.061 0.143 0.061 0.227 0 0.25-0.203 0.453-0.453 0.453-0.073 0-0.143-0.017-0.204-0.049l0.003 0.001c-0.269-0.133-0.586-0.21-0.921-0.21-0.825 0-1.539 0.471-1.89 1.158l-0.006 0.012c-0.077 0.147-0.228 0.246-0.403 0.246-0 0-0 0-0 0v0zM13.544 13.054l0.85 6.080c0.531-0.465 1.231-0.749 1.998-0.749 0.069 0 0.137 0.002 0.205 0.007l-0.009-0z"></path>
<path fill="#fc8b04" style="fill: var(--color1, #fc8b04); stroke: var(--color1, #fc8b04)" stroke="#fc8b04" stroke-linejoin="miter" stroke-linecap="butt" stroke-miterlimit="4" stroke-width="0.8" d="M16.275 3.194c0 0 0 0 0 0-0.25 0-0.453-0.203-0.453-0.453 0-0.001 0-0.001 0-0.002v0-1.086c0-0.25 0.203-0.453 0.453-0.453s0.453 0.203 0.453 0.453v0 1.086c0 0 0 0.001 0 0.002 0 0.25-0.203 0.453-0.453 0.453 0 0 0 0 0 0v0z"></path>
<path fill="#fc8b04" style="fill: var(--color1, #fc8b04); stroke: var(--color1, #fc8b04)" stroke="#fc8b04" stroke-linejoin="miter" stroke-linecap="butt" stroke-miterlimit="4" stroke-width="0.8" d="M9.134 5.17c-0.167-0-0.312-0.091-0.391-0.225l-0.001-0.002-0.544-0.941c-0.041-0.067-0.066-0.148-0.066-0.235 0-0.25 0.203-0.453 0.453-0.453 0.17 0 0.319 0.094 0.396 0.233l0.001 0.002 0.544 0.941c0.038 0.065 0.061 0.144 0.061 0.227 0 0.25-0.203 0.453-0.453 0.453-0 0-0 0-0 0h0z"></path>
<path fill="#fc8b04" style="fill: var(--color1, #fc8b04); stroke: var(--color1, #fc8b04)" stroke="#fc8b04" stroke-linejoin="miter" stroke-linecap="butt" stroke-miterlimit="4" stroke-width="0.8" d="M3.934 10.448c-0 0-0.001 0-0.001 0-0.083 0-0.161-0.023-0.228-0.062l0.002 0.001-0.942-0.539c-0.141-0.078-0.235-0.227-0.235-0.397 0-0.25 0.203-0.453 0.453-0.453 0.087 0 0.168 0.025 0.237 0.067l-0.002-0.001 0.941 0.544c0.136 0.080 0.226 0.225 0.226 0.392 0 0.25-0.203 0.453-0.453 0.453-0 0-0 0-0.001 0h0z"></path>
<path fill="#fc8b04" style="fill: var(--color1, #fc8b04); stroke: var(--color1, #fc8b04)" stroke="#fc8b04" stroke-linejoin="miter" stroke-linecap="butt" stroke-miterlimit="4" stroke-width="0.8" d="M2.072 17.619h-1.086c-0.25 0-0.453-0.203-0.453-0.453s0.203-0.453 0.453-0.453v0h1.086c0.25 0 0.453 0.203 0.453 0.453s-0.203 0.453-0.453 0.453v0z"></path>
<path fill="#fc8b04" style="fill: var(--color1, #fc8b04); stroke: var(--color1, #fc8b04)" stroke="#fc8b04" stroke-linejoin="miter" stroke-linecap="butt" stroke-miterlimit="4" stroke-width="0.8" d="M3.107 25.306c-0 0-0 0-0.001 0-0.25 0-0.453-0.203-0.453-0.453 0-0.167 0.090-0.312 0.224-0.391l0.002-0.001 0.941-0.544c0.067-0.041 0.148-0.066 0.235-0.066 0.25 0 0.453 0.203 0.453 0.453 0 0.17-0.094 0.319-0.233 0.396l-0.002 0.001-0.941 0.544c-0.064 0.038-0.142 0.061-0.225 0.061-0 0-0 0-0.001 0h0z"></path>
<path fill="#fc8b04" style="fill: var(--color1, #fc8b04); stroke: var(--color1, #fc8b04)" stroke="#fc8b04" stroke-linejoin="miter" stroke-linecap="butt" stroke-miterlimit="4" stroke-width="0.8" d="M23.416 5.17c-0 0-0 0-0 0-0.25 0-0.453-0.203-0.453-0.453 0-0.084 0.023-0.162 0.062-0.229l-0.001 0.002 0.544-0.941c0.078-0.141 0.227-0.235 0.397-0.235 0.25 0 0.453 0.203 0.453 0.453 0 0.087-0.025 0.168-0.067 0.237l0.001-0.002-0.544 0.941c-0.080 0.137-0.225 0.227-0.392 0.227h-0z"></path>
<path fill="#fc8b04" style="fill: var(--color1, #fc8b04); stroke: var(--color1, #fc8b04)" stroke="#fc8b04" stroke-linejoin="miter" stroke-linecap="butt" stroke-miterlimit="4" stroke-width="0.8" d="M28.616 10.448c-0 0-0 0-0.001 0-0.25 0-0.453-0.203-0.453-0.453 0-0.167 0.090-0.312 0.224-0.391l0.002-0.001 0.941-0.544c0.067-0.041 0.148-0.066 0.235-0.066 0.25 0 0.453 0.203 0.453 0.453 0 0.17-0.094 0.319-0.233 0.396l-0.002 0.001-0.941 0.544c-0.065 0.038-0.143 0.061-0.226 0.061-0 0-0.001 0-0.002 0h0z"></path>
<path fill="#fc8b04" style="fill: var(--color1, #fc8b04); stroke: var(--color1, #fc8b04)" stroke="#fc8b04" stroke-linejoin="miter" stroke-linecap="butt" stroke-miterlimit="4" stroke-width="0.8" d="M31.562 17.619h-1.086c-0.25 0-0.453-0.203-0.453-0.453s0.203-0.453 0.453-0.453v0h1.086c0.25 0 0.453 0.203 0.453 0.453s-0.203 0.453-0.453 0.453v0z"></path>
<path fill="#fc8b04" style="fill: var(--color1, #fc8b04); stroke: var(--color1, #fc8b04)" stroke="#fc8b04" stroke-linejoin="miter" stroke-linecap="butt" stroke-miterlimit="4" stroke-width="0.8" d="M29.442 25.306c-0.001 0-0.001 0-0.002 0-0.083 0-0.16-0.023-0.227-0.062l0.002 0.001-0.941-0.544c-0.141-0.078-0.235-0.227-0.235-0.397 0-0.25 0.203-0.453 0.453-0.453 0.087 0 0.168 0.025 0.237 0.067l-0.002-0.001 0.941 0.544c0.136 0.080 0.226 0.225 0.226 0.392 0 0.25-0.203 0.453-0.453 0.453-0 0-0 0-0.001 0h0z"></path>
</symbol>
<symbol id="icon-star-full" viewBox="0 0 32 32">
<path d="M32 12.408l-11.056-1.607-4.944-10.018-4.944 10.018-11.056 1.607 8 7.798-1.889 11.011 9.889-5.199 9.889 5.199-1.889-11.011 8-7.798z"></path>
</symbol>
</defs>
</svg>
